STARTFONT 2.1
COMMENT $XConsortium: lubBI12.bdf,v 1.10 94/04/02 16:24:34 gildea Exp $
COMMENT  (c) Copyright Bigelow & Holmes 1986, 1985. Lucida is a registered
COMMENT  trademark of Bigelow & Holmes. See LEGAL NOTICE file for terms 
COMMENT  of the license. 
COMMENT  
COMMENT  Translation to ISO8859-2 by Cub Soft;  Petr.Kolar@vslib.cz
COMMENT  
FONT -B&H-LucidaBright-DemiBold-I-Normal--17-120-100-100-P-101-ISO8859-2
SIZE 12 100 100
FONTBOUNDINGBOX 31 21 -11 -4
STARTPROPERTIES 20
COMMENT Begin LogicalFontDescription
FONTNAME_REGISTRY ""
FOUNDRY "B&H"
FAMILY_NAME "LucidaBright"
WEIGHT_NAME "DemiBold"
SLANT "I"
SETWIDTH_NAME "Normal"
ADD_STYLE_NAME ""
PIXEL_SIZE 17
POINT_SIZE 120
RESOLUTION_X 100
RESOLUTION_Y 100
SPACING "P"
AVERAGE_WIDTH 101
CHARSET_REGISTRY "ISO8859"
CHARSET_ENCODING "2"
COMMENT END LogicalFontDescription
FONT_ASCENT 15
FONT_DESCENT 4
DEFAULT_CHAR 0
COPYRIGHT "Copyright Bigelow & Holmes 1986, 1985., Copyright 1996 Cub Soft"
FACE_NAME "Lucida Bright Demibold Italic"
ENDPROPERTIES
CHARS 191
STARTCHAR space
ENCODING 32
SWIDTH 333 0
DWIDTH 5 0
BBX 1 1 0 0
BITMAP
00
ENDCHAR
STARTCHAR exclam
ENCODING 33
SWIDTH 265 0
DWIDTH 4 0
BBX 5 13 1 0
BITMAP
38
38
38
30
30
30
20
60
60
00
00
e0
e0
ENDCHAR
STARTCHAR quotedbl
ENCODING 34
SWIDTH 451 0
DWIDTH 8 0
BBX 6 5 3 8
BITMAP
cc
cc
cc
4c
48
ENDCHAR
STARTCHAR numbersign
ENCODING 35
SWIDTH 636 0
DWIDTH 11 0
BBX 11 13 1 0
BITMAP
0220
0240
0440
0480
7fe0
0900
1100
1200
ffc0
2400
4400
4800
c800
ENDCHAR
STARTCHAR dollar
ENCODING 36
SWIDTH 636 0
DWIDTH 11 0
BBX 9 15 2 -2
BITMAP
1f80
3580
3580
3400
3400
1800
0c00
0e00
0f00
0b00
d700
d600
fc00
1000
1000
ENDCHAR
STARTCHAR percent
ENCODING 37
SWIDTH 772 0
DWIDTH 13 0
BBX 12 13 2 0
BITMAP
3830
6c60
ccc0
cd80
d900
7200
06e0
0d20
0b20
1320
3360
6360
c1c0
ENDCHAR
STARTCHAR ampersand
ENCODING 38
SWIDTH 773 0
DWIDTH 13 0
BBX 12 13 1 0
BITMAP
0780
0dc0
1cc0
1d80
0d80
0e00
3ef0
6660
c760
c340
e380
6180
3fe0
ENDCHAR
STARTCHAR apostrophe
ENCODING 39
SWIDTH 265 0
DWIDTH 4 0
BBX 4 6 2 7
BITMAP
70
70
70
20
60
c0
ENDCHAR
STARTCHAR parenleft
ENCODING 40
SWIDTH 336 0
DWIDTH 6 0
BBX 6 16 1 -3
BITMAP
04
08
18
30
70
60
60
e0
c0
c0
c0
c0
c0
40
60
20
ENDCHAR
STARTCHAR parenright
ENCODING 41
SWIDTH 336 0
DWIDTH 6 0
BBX 6 16 0 -3
BITMAP
10
18
08
0c
0c
0c
0c
0c
0c
1c
18
18
30
20
40
80
ENDCHAR
STARTCHAR asterisk
ENCODING 42
SWIDTH 434 0
DWIDTH 8 0
BBX 7 6 2 7
BITMAP
18
52
ee
38
e8
4c
ENDCHAR
STARTCHAR plus
ENCODING 43
SWIDTH 636 0
DWIDTH 11 0
BBX 10 11 1 0
BITMAP
0600
0400
0400
0400
0400
ffc0
0800
0800
0800
0800
1800
ENDCHAR
STARTCHAR comma
ENCODING 44
SWIDTH 265 0
DWIDTH 4 0
BBX 4 6 0 -3
BITMAP
70
70
70
20
60
c0
ENDCHAR
STARTCHAR minus
ENCODING 45
SWIDTH 636 0
DWIDTH 11 0
BBX 10 1 1 5
BITMAP
ffc0
ENDCHAR
STARTCHAR period
ENCODING 46
SWIDTH 265 0
DWIDTH 4 0
BBX 3 3 1 0
BITMAP
e0
e0
e0
ENDCHAR
STARTCHAR slash
ENCODING 47
SWIDTH 515 0
DWIDTH 9 0
BBX 12 16 0 -3
BITMAP
0030
0020
0040
00c0
0080
0100
0300
0200
0400
0c00
0800
1000
3000
2000
4000
c000
ENDCHAR
STARTCHAR zero
ENCODING 48
SWIDTH 623 0
DWIDTH 11 0
BBX 10 13 2 0
BITMAP
0f00
1980
31c0
71c0
61c0
e1c0
e1c0
e1c0
e180
e380
e300
6600
3c00
ENDCHAR
STARTCHAR one
ENCODING 49
SWIDTH 636 0
DWIDTH 11 0
BBX 7 13 2 0
BITMAP
3e
0e
0e
0c
0c
1c
1c
1c
18
18
18
38
fe
ENDCHAR
STARTCHAR two
ENCODING 50
SWIDTH 636 0
DWIDTH 11 0
BBX 10 13 1 0
BITMAP
1f00
31c0
21c0
01c0
01c0
0380
0600
0c00
1000
2000
6000
ff00
ff00
ENDCHAR
STARTCHAR three
ENCODING 51
SWIDTH 636 0
DWIDTH 11 0
BBX 9 13 2 0
BITMAP
1f00
1380
2180
0180
0180
0600
3e00
0700
0380
0380
c300
c700
fc00
ENDCHAR
STARTCHAR four
ENCODING 52
SWIDTH 636 0
DWIDTH 11 0
BBX 10 13 1 0
BITMAP
01c0
03c0
0780
0d80
1980
3180
6380
c300
ffc0
0300
0300
0700
0f80
ENDCHAR
STARTCHAR five
ENCODING 53
SWIDTH 636 0
DWIDTH 11 0
BBX 10 13 2 0
BITMAP
1fc0
3fc0
2000
2000
2000
3c00
0700
0300
0300
0380
c300
c600
f800
ENDCHAR
STARTCHAR six
ENCODING 54
SWIDTH 636 0
DWIDTH 11 0
BBX 10 13 2 0
BITMAP
07c0
18c0
30c0
7000
6000
ef00
f380
e180
c180
c180
e300
6700
3c00
ENDCHAR
STARTCHAR seven
ENCODING 55
SWIDTH 636 0
DWIDTH 11 0
BBX 9 13 3 0
BITMAP
7f80
7f80
0100
0200
0600
0c00
0800
1800
3000
6000
6000
e000
e000
ENDCHAR
STARTCHAR eight
ENCODING 56
SWIDTH 636 0
DWIDTH 11 0
BBX 10 13 1 0
BITMAP
0f80
19c0
30c0
30c0
3980
1f00
3f00
6780
e180
e180
e180
e300
3c00
ENDCHAR
STARTCHAR nine
ENCODING 57
SWIDTH 636 0
DWIDTH 11 0
BBX 10 13 1 0
BITMAP
0f00
3980
31c0
60c0
60c0
61c0
73c0
3dc0
0180
0380
c300
c600
f800
ENDCHAR
STARTCHAR colon
ENCODING 58
SWIDTH 265 0
DWIDTH 4 0
BBX 4 9 1 0
BITMAP
30
70
00
00
00
00
00
e0
c0
ENDCHAR
STARTCHAR semicolon
ENCODING 59
SWIDTH 265 0
DWIDTH 4 0
BBX 5 12 0 -3
BITMAP
38
38
00
00
00
00
00
70
60
60
60
c0
ENDCHAR
STARTCHAR less
ENCODING 60
SWIDTH 636 0
DWIDTH 11 0
BBX 11 11 1 0
BITMAP
0020
00e0
0380
0e00
3800
e000
3000
1c00
0700
0180
0080
ENDCHAR
STARTCHAR equal
ENCODING 61
SWIDTH 636 0
DWIDTH 11 0
BBX 11 5 1 2
BITMAP
7fe0
0000
0000
0000
ffc0
ENDCHAR
STARTCHAR greater
ENCODING 62
SWIDTH 636 0
DWIDTH 11 0
BBX 11 11 0 0
BITMAP
2000
3000
1c00
0700
0180
00e0
0380
0e00
3800
e000
8000
ENDCHAR
STARTCHAR question
ENCODING 63
SWIDTH 493 0
DWIDTH 8 0
BBX 7 13 3 0
BITMAP
7c
ce
8e
06
0c
08
10
20
60
00
00
e0
c0
ENDCHAR
STARTCHAR at
ENCODING 64
SWIDTH 861 0
DWIDTH 15 0
BBX 13 13 2 0
BITMAP
07c0
1830
2010
4708
48c8
9888
9188
9388
9390
9de0
4000
6100
1e00
ENDCHAR
STARTCHAR A
ENCODING 65
SWIDTH 765 0
DWIDTH 13 0
BBX 13 13 0 0
BITMAP
00c0
01c0
01c0
02c0
02c0
04e0
08e0
0860
1fe0
1070
2070
4070
f0f8
ENDCHAR
STARTCHAR B
ENCODING 66
SWIDTH 651 0
DWIDTH 11 0
BBX 11 13 1 0
BITMAP
3fc0
1ce0
1ce0
18e0
18c0
1980
1f00
39c0
30c0
30c0
30c0
71c0
ff00
ENDCHAR
STARTCHAR C
ENCODING 67
SWIDTH 740 0
DWIDTH 13 0
BBX 12 13 2 0
BITMAP
07f0
1c30
3830
3030
6000
6000
e000
e000
e000
e000
6000
70c0
1f80
ENDCHAR
STARTCHAR D
ENCODING 68
SWIDTH 822 0
DWIDTH 14 0
BBX 14 13 1 0
BITMAP
3ff0
1c38
1c1c
1c1c
1c1c
181c
181c
381c
3818
3838
3070
70e0
ff80
ENDCHAR
STARTCHAR E
ENCODING 69
SWIDTH 630 0
DWIDTH 11 0
BBX 11 13 1 0
BITMAP
3fe0
1c60
1c00
1c00
1800
1880
3f80
3880
3800
3000
3000
7080
ff80
ENDCHAR
STARTCHAR F
ENCODING 70
SWIDTH 602 0
DWIDTH 10 0
BBX 11 13 1 0
BITMAP
3fe0
1c60
1c00
1800
1800
1880
3f80
3880
3800
3000
3000
7000
f800
ENDCHAR
STARTCHAR G
ENCODING 71
SWIDTH 780 0
DWIDTH 13 0
BBX 12 13 2 0
BITMAP
07f0
1c30
3830
3000
7000
6000
e000
e1f0
e0e0
e0c0
60c0
71c0
1f80
ENDCHAR
STARTCHAR H
ENCODING 72
SWIDTH 827 0
DWIDTH 14 0
BBX 15 13 1 0
BITMAP
3f3e
1c1c
1c18
1c18
1838
1838
1ff0
3830
3830
3070
3070
7070
f9f8
ENDCHAR
STARTCHAR I
ENCODING 73
SWIDTH 372 0
DWIDTH 6 0
BBX 8 13 0 0
BITMAP
3f
0e
0c
1c
1c
1c
18
18
38
38
38
70
fc
ENDCHAR
STARTCHAR J
ENCODING 74
SWIDTH 478 0
DWIDTH 8 0
BBX 10 16 0 -3
BITMAP
07c0
0380
0300
0300
0700
0700
0700
0600
0600
0600
0e00
0e00
0e00
cc00
d800
f000
ENDCHAR
STARTCHAR K
ENCODING 75
SWIDTH 746 0
DWIDTH 13 0
BBX 13 13 1 0
BITMAP
3e38
1c30
1c40
1880
1900
1a00
1f00
3f00
3b80
31c0
31c0
70e0
f9f0
ENDCHAR
STARTCHAR L
ENCODING 76
SWIDTH 611 0
DWIDTH 10 0
BBX 10 13 1 0
BITMAP
3f00
1c00
1c00
1c00
1c00
1800
1800
3800
3800
3800
3040
70c0
ff80
ENDCHAR
STARTCHAR M
ENCODING 77
SWIDTH 926 0
DWIDTH 16 0
BBX 17 13 1 0
BITMAP
3c0780
1c0f00
1e0e00
161600
161600
162e00
174c00
334c00
238c00
230c00
211c00
601c00
f03e00
ENDCHAR
STARTCHAR N
ENCODING 78
SWIDTH 797 0
DWIDTH 14 0
BBX 15 13 0 0
BITMAP
3c1e
1c0c
1e08
1608
1708
1318
1390
3190
21d0
20d0
20f0
6060
f060
ENDCHAR
STARTCHAR O
ENCODING 79
SWIDTH 831 0
DWIDTH 14 0
BBX 13 13 2 0
BITMAP
07c0
0c70
3830
3038
7038
6038
e038
e030
e070
e060
e0c0
7180
3e00
ENDCHAR
STARTCHAR P
ENCODING 80
SWIDTH 628 0
DWIDTH 11 0
BBX 11 13 1 0
BITMAP
3fc0
1ce0
18e0
18e0
18e0
18c0
3980
3f00
3000
3000
3000
7000
f800
ENDCHAR
STARTCHAR Q
ENCODING 81
SWIDTH 835 0
DWIDTH 14 0
BBX 14 16 2 -3
BITMAP
07c0
0c70
3830
3038
7038
6038
e038
e038
e070
e070
e0e0
71c0
3f80
0200
01c0
007c
ENDCHAR
STARTCHAR R
ENCODING 82
SWIDTH 711 0
DWIDTH 12 0
BBX 12 13 0 0
BITMAP
3fe0
0c70
1c70
1c70
1c60
18e0
1f80
3b80
3980
39c0
30c0
70e0
f870
ENDCHAR
STARTCHAR S
ENCODING 83
SWIDTH 587 0
DWIDTH 10 0
BBX 10 13 1 0
BITMAP
0fc0
18c0
30c0
3000
3800
3c00
1e00
0700
0380
0380
c380
c700
fc00
ENDCHAR
STARTCHAR T
ENCODING 84
SWIDTH 716 0
DWIDTH 12 0
BBX 12 13 2 0
BITMAP
fff0
c630
8630
0e00
0e00
0c00
0c00
0c00
1c00
1c00
1c00
1800
7e00
ENDCHAR
STARTCHAR U
ENCODING 85
SWIDTH 775 0
DWIDTH 13 0
BBX 13 13 3 0
BITMAP
fc78
7020
7020
7020
6040
6040
e040
e040
e040
e080
e080
6100
3e00
ENDCHAR
STARTCHAR V
ENCODING 86
SWIDTH 741 0
DWIDTH 13 0
BBX 13 13 2 0
BITMAP
f838
7010
7020
7060
3040
3880
3880
3900
1b00
1a00
1c00
1c00
1800
ENDCHAR
STARTCHAR W
ENCODING 87
SWIDTH 922 0
DWIDTH 16 0
BBX 16 13 2 0
BITMAP
f087
6182
6184
6384
6388
75c8
75d0
75d0
78e0
78e0
30c0
30c0
2080
ENDCHAR
STARTCHAR X
ENCODING 88
SWIDTH 672 0
DWIDTH 11 0
BBX 13 13 0 0
BITMAP
1e38
1c30
0e20
0e40
0680
0700
0300
0780
0b80
1180
21c0
60c0
e3e0
ENDCHAR
STARTCHAR Y
ENCODING 89
SWIDTH 669 0
DWIDTH 11 0
BBX 12 13 2 0
BITMAP
f870
7060
7040
3880
3900
1a00
1e00
1c00
1c00
1800
1800
3800
7e00
ENDCHAR
STARTCHAR Z
ENCODING 90
SWIDTH 684 0
DWIDTH 12 0
BBX 12 13 1 0
BITMAP
1ff0
10e0
10e0
01c0
0380
0700
0e00
0e00
1c00
3800
7040
70c0
ffc0
ENDCHAR
STARTCHAR bracketleft
ENCODING 91
SWIDTH 336 0
DWIDTH 6 0
BBX 7 16 1 -3
BITMAP
1e
18
18
38
30
30
30
30
70
60
60
60
60
e0
c0
f0
ENDCHAR
STARTCHAR backslash
ENCODING 92
SWIDTH 515 0
DWIDTH 9 0
BBX 5 16 3 -3
BITMAP
80
80
40
40
40
40
20
20
20
20
10
10
10
10
08
08
ENDCHAR
STARTCHAR bracketright
ENCODING 93
SWIDTH 336 0
DWIDTH 6 0
BBX 7 16 0 -3
BITMAP
1e
06
0e
0c
0c
0c
0c
1c
18
18
18
18
38
30
30
f0
ENDCHAR
STARTCHAR asciicircum
ENCODING 94
SWIDTH 636 0
DWIDTH 11 0
BBX 10 11 1 2
BITMAP
0200
0200
0700
0500
0900
0900
1180
3080
2080
40c0
c0c0
ENDCHAR
STARTCHAR underscore
ENCODING 95
SWIDTH 500 0
DWIDTH 8 0
BBX 7 1 1 -2
BITMAP
fe
ENDCHAR
STARTCHAR grave
ENCODING 96
SWIDTH 599 0
DWIDTH 10 0
BBX 3 2 6 11
BITMAP
c0
20
ENDCHAR
STARTCHAR a
ENCODING 97
SWIDTH 634 0
DWIDTH 11 0
BBX 10 9 1 0
BITMAP
0fc0
11c0
3180
6180
e380
e780
ef80
fb80
63c0
ENDCHAR
STARTCHAR b
ENCODING 98
SWIDTH 633 0
DWIDTH 11 0
BBX 10 13 1 0
BITMAP
7800
3800
3800
3000
3380
35c0
79c0
71c0
7180
6180
6300
e200
fc00
ENDCHAR
STARTCHAR c
ENCODING 99
SWIDTH 524 0
DWIDTH 9 0
BBX 9 9 1 0
BITMAP
0f80
3100
6100
6000
e000
e000
e000
e100
7e00
ENDCHAR
STARTCHAR d
ENCODING 100
SWIDTH 634 0
DWIDTH 11 0
BBX 11 13 1 0
BITMAP
01e0
00e0
00c0
00c0
0fc0
11c0
31c0
6180
6380
e380
e780
eb80
73c0
ENDCHAR
STARTCHAR e
ENCODING 101
SWIDTH 548 0
DWIDTH 9 0
BBX 8 9 1 0
BITMAP
0e
33
63
63
e6
fc
e0
e1
7e
ENDCHAR
STARTCHAR f
ENCODING 102
SWIDTH 415 0
DWIDTH 7 0
BBX 9 16 1 -3
BITMAP
0780
0c80
1880
1800
7e00
3800
3000
3000
3000
7000
7000
6000
6000
6000
e000
c000
ENDCHAR
STARTCHAR g
ENCODING 103
SWIDTH 628 0
DWIDTH 11 0
BBX 10 12 1 -3
BITMAP
07c0
19c0
31c0
7180
6380
6380
6780
6b80
7300
8300
c600
fc00
ENDCHAR
STARTCHAR h
ENCODING 104
SWIDTH 656 0
DWIDTH 11 0
BBX 10 13 1 0
BITMAP
7800
3800
3800
3800
3180
37c0
79c0
79c0
7180
6180
6380
e380
e3c0
ENDCHAR
STARTCHAR i
ENCODING 105
SWIDTH 319 0
DWIDTH 5 0
BBX 5 13 2 0
BITMAP
38
38
00
00
f0
70
70
70
60
60
e0
e0
f0
ENDCHAR
STARTCHAR j
ENCODING 106
SWIDTH 381 0
DWIDTH 6 0
BBX 9 17 0 -4
BITMAP
0180
0380
0000
0000
0f00
0700
0700
0700
0600
0600
0600
0e00
0e00
0c00
cc00
d800
f000
ENDCHAR
STARTCHAR k
ENCODING 107
SWIDTH 626 0
DWIDTH 11 0
BBX 9 13 2 0
BITMAP
7800
3800
3000
3000
3380
7380
7700
6e00
7c00
6c00
ee00
e700
c380
ENDCHAR
STARTCHAR l
ENCODING 108
SWIDTH 319 0
DWIDTH 5 0
BBX 5 13 1 0
BITMAP
78
38
38
30
30
70
70
70
60
60
e0
e0
f0
ENDCHAR
STARTCHAR m
ENCODING 109
SWIDTH 969 0
DWIDTH 16 0
BBX 15 9 2 0
BITMAP
f39c
77be
79ae
71ce
73cc
638c
630c
e31c
c31e
ENDCHAR
STARTCHAR n
ENCODING 110
SWIDTH 656 0
DWIDTH 11 0
BBX 10 9 1 0
BITMAP
f380
35c0
79c0
79c0
7180
6180
6380
e380
e3c0
ENDCHAR
STARTCHAR o
ENCODING 111
SWIDTH 599 0
DWIDTH 10 0
BBX 9 9 1 0
BITMAP
0f00
3180
7180
6180
e180
e380
e300
e600
7c00
ENDCHAR
STARTCHAR p
ENCODING 112
SWIDTH 639 0
DWIDTH 11 0
BBX 11 12 1 -3
BITMAP
79c0
3ae0
3ce0
38e0
38e0
70c0
7180
7100
7e00
6000
e000
e000
ENDCHAR
STARTCHAR q
ENCODING 113
SWIDTH 630 0
DWIDTH 11 0
BBX 10 12 1 -3
BITMAP
0fc0
11c0
3180
6180
e380
e380
e780
eb00
7300
0300
0700
0700
ENDCHAR
STARTCHAR r
ENCODING 114
SWIDTH 496 0
DWIDTH 8 0
BBX 9 9 1 0
BITMAP
f180
3700
7c00
7800
7000
6000
6000
e000
e000
ENDCHAR
STARTCHAR s
ENCODING 115
SWIDTH 479 0
DWIDTH 8 0
BBX 8 9 1 0
BITMAP
1f
31
33
38
1c
0e
86
ce
fc
ENDCHAR
STARTCHAR t
ENCODING 116
SWIDTH 375 0
DWIDTH 6 0
BBX 6 12 2 0
BITMAP
30
30
30
fc
70
60
60
60
e0
e0
e0
70
ENDCHAR
STARTCHAR u
ENCODING 117
SWIDTH 655 0
DWIDTH 11 0
BBX 10 9 2 0
BITMAP
f3c0
71c0
7180
6180
6380
e780
e780
fb00
e3c0
ENDCHAR
STARTCHAR v
ENCODING 118
SWIDTH 584 0
DWIDTH 10 0
BBX 10 9 1 0
BITMAP
f1c0
70c0
7080
3180
3b00
3a00
3c00
1800
1000
ENDCHAR
STARTCHAR w
ENCODING 119
SWIDTH 822 0
DWIDTH 14 0
BBX 14 9 1 0
BITMAP
e11c
710c
3388
3390
35b0
3da0
39c0
31c0
3080
ENDCHAR
STARTCHAR x
ENCODING 120
SWIDTH 534 0
DWIDTH 9 0
BBX 9 9 1 0
BITMAP
7180
3980
1900
1e00
0c00
3e00
6600
c700
c780
ENDCHAR
STARTCHAR y
ENCODING 121
SWIDTH 586 0
DWIDTH 10 0
BBX 12 12 0 -3
BITMAP
3870
1c30
1c20
0c60
0cc0
0f80
0f00
0600
0400
0800
1000
f000
ENDCHAR
STARTCHAR z
ENCODING 122
SWIDTH 567 0
DWIDTH 10 0
BBX 10 9 1 0
BITMAP
3fc0
2180
2300
0600
0c00
1800
3880
7180
ff80
ENDCHAR
STARTCHAR braceleft
ENCODING 123
SWIDTH 361 0
DWIDTH 6 0
BBX 6 16 2 -3
BITMAP
1c
38
38
30
30
30
30
20
c0
60
60
60
e0
c0
c0
60
ENDCHAR
STARTCHAR bar
ENCODING 124
SWIDTH 253 0
DWIDTH 4 0
BBX 4 16 1 -3
BITMAP
10
30
30
20
20
20
20
60
60
40
40
40
40
c0
c0
80
ENDCHAR
STARTCHAR braceright
ENCODING 125
SWIDTH 361 0
DWIDTH 6 0
BBX 6 16 1 -3
BITMAP
18
0c
0c
1c
18
18
18
0c
10
30
30
30
30
70
70
e0
ENDCHAR
STARTCHAR asciitilde
ENCODING 126
SWIDTH 636 0
DWIDTH 11 0
BBX 10 4 1 3
BITMAP
7040
9840
8440
8380
ENDCHAR
STARTCHAR nobreakspace
ENCODING 160
SWIDTH 333 0
DWIDTH 5 0
BBX 1 1 0 0
BITMAP
00
ENDCHAR
STARTCHAR Aogonek
ENCODING 161
SWIDTH 765 0
DWIDTH 13 0
BBX 13 15 0 -2
BITMAP
00c0
01c0
01c0
02c0
02c0
04e0
08e0
0860
1fe0
1070
2070
4070
f0f8
0200
0700
ENDCHAR
STARTCHAR breve
ENCODING 162
SWIDTH 599 0
DWIDTH 10 0
BBX 6 2 5 11
BITMAP
84
78
ENDCHAR
STARTCHAR Lstroke
ENCODING 163
SWIDTH 611 0
DWIDTH 10 0
BBX 10 13 1 0
BITMAP
3f00
1c00
1c00
1c00
1c00
1e00
7800
7800
3800
3800
3040
70c0
ffc0
ENDCHAR
STARTCHAR currency
ENCODING 164
SWIDTH 636 0
DWIDTH 11 0
BBX 12 13 1 0
BITMAP
2010
1010
1f20
08c0
10c0
1040
3040
10c0
1080
1900
2f80
4040
8040
ENDCHAR
STARTCHAR Lcaron
ENCODING 165
SWIDTH 780 0
DWIDTH 13 0
BBX 13 15 1 0
BITMAP
0038
0038
3f38
1c10
1c30
1c60
1c00
1800
1800
3800
3800
3800
3040
70c0
ff80
ENDCHAR
STARTCHAR Sacute
ENCODING 166
SWIDTH 587 0
DWIDTH 10 0
BBX 11 16 1 0
BITMAP
00e0
0300
0000
0fc0
18c0
30c0
3000
3800
3c00
1e00
0700
0380
0380
c380
c700
fc00
ENDCHAR
STARTCHAR section
ENCODING 167
SWIDTH 636 0
DWIDTH 11 0
BBX 10 16 1 -3
BITMAP
0fc0
18c0
30c0
3000
3c00
1f00
2780
6180
7180
7900
1e00
0f00
0300
c300
c700
fc00
ENDCHAR
STARTCHAR diaeresis
ENCODING 168
SWIDTH 599 0
DWIDTH 10 0
BBX 5 1 5 12
BITMAP
d8
ENDCHAR
STARTCHAR Scaron
ENCODING 169
SWIDTH 587 0
DWIDTH 10 0
BBX 10 16 1 0
BITMAP
0cc0
0700
0000
0fc0
18c0
30c0
3000
3800
3c00
1e00
0700
0380
0380
c380
c700
fc00
ENDCHAR
STARTCHAR Scedilla
ENCODING 170
SWIDTH 587 0
DWIDTH 10 0
BBX 10 16 1 -3
BITMAP
0fc0
18c0
30c0
3000
3800
3c00
1e00
0700
0380
0380
c380
c700
fc00
0c00
0400
1c00
ENDCHAR
STARTCHAR Tcaron
ENCODING 171
SWIDTH 716 0
DWIDTH 12 0
BBX 12 16 2 0
BITMAP
0cc0
0700
0000
fff0
c630
8630
0e00
0e00
0c00
0c00
0c00
1c00
1c00
1c00
1800
7e00
ENDCHAR
STARTCHAR Zacute
ENCODING 172
SWIDTH 684 0
DWIDTH 12 0
BBX 12 16 1 0
BITMAP
0070
0180
0000
1ff0
10e0
10e0
01c0
0380
0700
0e00
0e00
1c00
3800
7040
70c0
ffc0
ENDCHAR
STARTCHAR hyphen
ENCODING 173
SWIDTH 289 0
DWIDTH 5 0
BBX 4 1 2 5
BITMAP
f0
ENDCHAR
STARTCHAR Zcaron
ENCODING 174
SWIDTH 684 0
DWIDTH 12 0
BBX 12 16 1 0
BITMAP
0660
0380
0000
1ff0
10e0
10e0
01c0
0380
0700
0e00
0e00
1c00
3800
7040
70c0
ffc0
ENDCHAR
STARTCHAR Zabovedot
ENCODING 175
SWIDTH 684 0
DWIDTH 12 0
BBX 12 16 1 0
BITMAP
0180
0180
0000
1ff0
10e0
10e0
01c0
0380
0700
0e00
0e00
1c00
3800
7040
70c0
ffc0
ENDCHAR
STARTCHAR degree
ENCODING 176
SWIDTH 259 0
DWIDTH 4 0
BBX 3 4 4 9
BITMAP
c0
a0
a0
c0
ENDCHAR
STARTCHAR aogonek
ENCODING 177
SWIDTH 634 0
DWIDTH 11 0
BBX 10 11 1 -2
BITMAP
0fc0
11c0
3180
6180
e380
e780
ef80
fb80
63c0
0800
1c00
ENDCHAR
STARTCHAR ogonek
ENCODING 178
SWIDTH 599 0
DWIDTH 10 0
BBX 3 2 3 -3
BITMAP
40
e0
ENDCHAR
STARTCHAR lstroke
ENCODING 179
SWIDTH 319 0
DWIDTH 5 0
BBX 6 13 1 0
BITMAP
38
18
18
38
30
3c
30
f0
70
70
60
60
70
ENDCHAR
STARTCHAR acute
ENCODING 180
SWIDTH 599 0
DWIDTH 10 0
BBX 5 2 6 11
BITMAP
38
c0
ENDCHAR
STARTCHAR lcaron
ENCODING 181
SWIDTH 600 0
DWIDTH 10 0
BBX 10 15 1 0
BITMAP
01c0
01c0
79c0
3880
3980
3300
3000
7000
7000
7000
6000
6000
e000
e000
f000
ENDCHAR
STARTCHAR sacute
ENCODING 182
SWIDTH 479 0
DWIDTH 8 0
BBX 9 12 1 0
BITMAP
0380
0c00
0000
1f00
3100
3300
3800
1c00
0e00
8600
ce00
fc00
ENDCHAR
STARTCHAR caron
ENCODING 183
SWIDTH 599 0
DWIDTH 10 0
BBX 6 2 5 11
BITMAP
cc
70
ENDCHAR
STARTCHAR cedilla
ENCODING 184
SWIDTH 599 0
DWIDTH 10 0
BBX 3 3 3 -3
BITMAP
60
20
e0
ENDCHAR
STARTCHAR scaron
ENCODING 185
SWIDTH 479 0
DWIDTH 8 0
BBX 8 12 1 0
BITMAP
33
1c
00
1f
31
33
38
1c
0e
86
ce
fc
ENDCHAR
STARTCHAR scedilla
ENCODING 186
SWIDTH 479 0
DWIDTH 8 0
BBX 8 12 1 -3
BITMAP
1f
31
33
38
1c
0e
86
ce
fc
18
08
38
ENDCHAR
STARTCHAR tcaron
ENCODING 187
SWIDTH 540 0
DWIDTH 9 0
BBX 9 16 2 0
BITMAP
0380
0380
0380
0100
3300
3600
3000
fc00
7000
6000
6000
6000
e000
e000
e000
7000
ENDCHAR
STARTCHAR zacute
ENCODING 188
SWIDTH 567 0
DWIDTH 10 0
BBX 10 12 1 0
BITMAP
01c0
0600
0000
3fc0
2180
2300
0600
0c00
1800
3880
7180
ff80
ENDCHAR
STARTCHAR doubleacute
ENCODING 189
SWIDTH 599 0
DWIDTH 10 0
BBX 6 2 6 11
BITMAP
7c
b0
ENDCHAR
STARTCHAR zcaron
ENCODING 190
SWIDTH 567 0
DWIDTH 10 0
BBX 10 12 1 0
BITMAP
1980
0e00
0000
3fc0
2180
2300
0600
0c00
1800
3880
7180
ff80
ENDCHAR
STARTCHAR zabovedot
ENCODING 191
SWIDTH 567 0
DWIDTH 10 0
BBX 10 12 1 0
BITMAP
0600
0600
0000
3fc0
2180
2300
0600
0c00
1800
3880
7180
ff80
ENDCHAR
STARTCHAR Racute
ENCODING 192
SWIDTH 711 0
DWIDTH 12 0
BBX 12 16 0 0
BITMAP
0070
0180
0000
3fe0
0c70
1c70
1c70
1c60
18e0
1f80
3b80
3980
39c0
30c0
70e0
f870
ENDCHAR
STARTCHAR Aacute
ENCODING 193
SWIDTH 765 0
DWIDTH 13 0
BBX 13 16 0 0
BITMAP
0070
0180
0000
00c0
01c0
01c0
02c0
02c0
04e0
08e0
0860
1fe0
1070
2070
4070
f0f8
ENDCHAR
STARTCHAR Acircumflex
ENCODING 194
SWIDTH 765 0
DWIDTH 13 0
BBX 13 16 0 0
BITMAP
00e0
0330
0000
00c0
01c0
01c0
02c0
02c0
04e0
08e0
0860
1fe0
1070
2070
4070
f0f8
ENDCHAR
STARTCHAR Abreve
ENCODING 195
SWIDTH 765 0
DWIDTH 13 0
BBX 13 16 0 0
BITMAP
0210
01e0
0000
00c0
01c0
01c0
02c0
02c0
04e0
08e0
0860
1fe0
1070
2070
4070
f0f8
ENDCHAR
STARTCHAR Adiaeresis
ENCODING 196
SWIDTH 765 0
DWIDTH 13 0
BBX 13 15 0 0
BITMAP
01b0
0000
00c0
01c0
01c0
02c0
02c0
04e0
08e0
0860
1fe0
1070
2070
4070
f0f8
ENDCHAR
STARTCHAR Lacute
ENCODING 197
SWIDTH 611 0
DWIDTH 10 0
BBX 10 16 1 0
BITMAP
01c0
0600
0000
3f00
1c00
1c00
1c00
1c00
1800
1800
3800
3800
3800
3040
70c0
ff80
ENDCHAR
STARTCHAR Cacute
ENCODING 198
SWIDTH 740 0
DWIDTH 13 0
BBX 12 16 2 0
BITMAP
0070
0180
0000
07f0
1c30
3830
3030
6000
6000
e000
e000
e000
e000
6000
70c0
1f80
ENDCHAR
STARTCHAR Ccedilla
ENCODING 199
SWIDTH 740 0
DWIDTH 13 0
BBX 12 16 2 -3
BITMAP
07f0
1c30
3830
3030
6000
6000
e000
e000
e000
e000
6000
70c0
1f80
1000
0800
3800
ENDCHAR
STARTCHAR Ccaron
ENCODING 200
SWIDTH 740 0
DWIDTH 13 0
BBX 12 16 2 0
BITMAP
0660
0380
0000
07f0
1c30
3830
3030
6000
6000
e000
e000
e000
e000
6000
70c0
1f80
ENDCHAR
STARTCHAR Eacute
ENCODING 201
SWIDTH 630 0
DWIDTH 11 0
BBX 11 16 1 0
BITMAP
01c0
0600
0000
3fe0
1c60
1c00
1c00
1800
1880
3f80
3880
3800
3000
3000
7080
ff80
ENDCHAR
STARTCHAR Eogonek
ENCODING 202
SWIDTH 630 0
DWIDTH 11 0
BBX 11 15 1 -2
BITMAP
3fe0
1c60
1c00
1c00
1800
1880
3f80
3880
3800
3000
3000
7080
ff80
0400
0e00
ENDCHAR
STARTCHAR Ediaeresis
ENCODING 203
SWIDTH 630 0
DWIDTH 11 0
BBX 11 15 1 0
BITMAP
06c0
0000
3fe0
1c60
1c00
1c00
1800
1880
3f80
3880
3800
3000
3000
7080
ff80
ENDCHAR
STARTCHAR Ecaron
ENCODING 204
SWIDTH 630 0
DWIDTH 11 0
BBX 11 16 1 0
BITMAP
0cc0
0700
0000
3fe0
1c60
1c00
1c00
1800
1880
3f80
3880
3800
3000
3000
7080
ff80
ENDCHAR
STARTCHAR Iacute
ENCODING 205
SWIDTH 372 0
DWIDTH 6 0
BBX 9 16 0 0
BITMAP
0380
0c00
0000
3f00
0e00
0c00
1c00
1c00
1c00
1800
1800
3800
3800
3800
7000
fc00
ENDCHAR
STARTCHAR Icircumflex
ENCODING 206
SWIDTH 372 0
DWIDTH 6 0
BBX 8 16 0 0
BITMAP
0e
33
00
3f
0e
0c
1c
1c
1c
18
18
38
38
38
70
fc
ENDCHAR
STARTCHAR Dcaron
ENCODING 207
SWIDTH 822 0
DWIDTH 14 0
BBX 14 16 1 0
BITMAP
0330
01c0
0000
3ff0
1c38
1c1c
1c1c
1c1c
181c
181c
381c
3818
3838
3070
70e0
ff80
ENDCHAR
STARTCHAR Dstroke
ENCODING 208
SWIDTH 822 0
DWIDTH 14 0
BBX 14 13 1 0
BITMAP
3ff0
1c38
1c1c
1c1c
1c1c
181c
7f1c
381c
3818
3838
3070
70e0
ff80
ENDCHAR
STARTCHAR Nacute
ENCODING 209
SWIDTH 797 0
DWIDTH 14 0
BBX 15 16 0 0
BITMAP
0038
00c0
0000
3c1e
1c0c
1e08
1608
1708
1318
1390
3190
21d0
20d0
20f0
6060
f060
ENDCHAR
STARTCHAR Ncaron
ENCODING 210
SWIDTH 797 0
DWIDTH 14 0
BBX 15 16 0 0
BITMAP
0330
01c0
0000
3c1e
1c0c
1e08
1608
1708
1318
1390
3190
21d0
20d0
20f0
6060
f060
ENDCHAR
STARTCHAR Oacute
ENCODING 211
SWIDTH 831 0
DWIDTH 14 0
BBX 13 16 2 0
BITMAP
00e0
0300
0000
07c0
0c70
3830
3038
7038
6038
e038
e030
e070
e060
e0c0
7180
3e00
ENDCHAR
STARTCHAR Ocircumflex
ENCODING 212
SWIDTH 831 0
DWIDTH 14 0
BBX 13 16 2 0
BITMAP
01c0
0660
0000
07c0
0c70
3830
3038
7038
6038
e038
e030
e070
e060
e0c0
7180
3e00
ENDCHAR
STARTCHAR Odoubleacute
ENCODING 213
SWIDTH 831 0
DWIDTH 14 0
BBX 13 16 2 0
BITMAP
01f0
02c0
0000
07c0
0c70
3830
3038
7038
6038
e038
e030
e070
e060
e0c0
7180
3e00
ENDCHAR
STARTCHAR Odiaeresis
ENCODING 214
SWIDTH 831 0
DWIDTH 14 0
BBX 13 15 2 0
BITMAP
06c0
0000
07c0
0c70
3830
3038
7038
6038
e038
e030
e070
e060
e0c0
7180
3e00
ENDCHAR
STARTCHAR multiply
ENCODING 215
SWIDTH 636 0
DWIDTH 11 0
BBX 11 11 1 0
BITMAP
2020
3040
1080
1900
0e00
0400
0e00
1300
2100
4180
8080
ENDCHAR
STARTCHAR Rcaron
ENCODING 216
SWIDTH 711 0
DWIDTH 12 0
BBX 12 16 0 0
BITMAP
0660
0380
0000
3fe0
0c70
1c70
1c70
1c60
18e0
1f80
3b80
3980
39c0
30c0
70e0
f870
ENDCHAR
STARTCHAR Uring
ENCODING 217
SWIDTH 775 0
DWIDTH 13 0
BBX 13 17 3 0
BITMAP
0700
0500
0700
0000
fc78
7020
7020
7020
6040
6040
e040
e040
e040
e080
e080
6100
3e00
ENDCHAR
STARTCHAR Uacute
ENCODING 218
SWIDTH 775 0
DWIDTH 13 0
BBX 13 16 3 0
BITMAP
01c0
0600
0000
fc78
7020
7020
7020
6040
6040
e040
e040
e040
e080
e080
6100
3e00
ENDCHAR
STARTCHAR Udoubleacute
ENCODING 219
SWIDTH 775 0
DWIDTH 13 0
BBX 13 16 3 0
BITMAP
03e0
0580
0000
fc78
7020
7020
7020
6040
6040
e040
e040
e040
e080
e080
6100
3e00
ENDCHAR
STARTCHAR Udiaeresis
ENCODING 220
SWIDTH 775 0
DWIDTH 13 0
BBX 13 15 3 0
BITMAP
0d80
0000
fc78
7020
7020
7020
6040
6040
e040
e040
e040
e080
e080
6100
3e00
ENDCHAR
STARTCHAR Yacute
ENCODING 221
SWIDTH 669 0
DWIDTH 11 0
BBX 12 16 2 0
BITMAP
01c0
0600
0000
f870
7060
7040
3880
3900
1a00
1e00
1c00
1c00
1800
1800
3800
7e00
ENDCHAR
STARTCHAR Tcedilla
ENCODING 222
SWIDTH 716 0
DWIDTH 12 0
BBX 12 16 2 -3
BITMAP
fff0
c630
8630
0e00
0e00
0c00
0c00
0c00
1c00
1c00
1c00
1800
7e00
0600
0200
0e00
ENDCHAR
STARTCHAR ssharp
ENCODING 223
SWIDTH 656 0
DWIDTH 11 0
BBX 10 16 1 -3
BITMAP
0780
1dc0
19c0
1980
3900
3a00
3700
3380
31c0
71c0
60c0
64c0
6f80
6000
e000
c000
ENDCHAR
STARTCHAR racute
ENCODING 224
SWIDTH 496 0
DWIDTH 8 0
BBX 9 12 1 0
BITMAP
0380
0c00
0000
f180
3700
7c00
7800
7000
6000
6000
e000
e000
ENDCHAR
STARTCHAR aacute
ENCODING 225
SWIDTH 634 0
DWIDTH 11 0
BBX 10 12 1 0
BITMAP
01c0
0600
0000
0fc0
11c0
3180
6180
e380
e780
ef80
fb80
63c0
ENDCHAR
STARTCHAR acircumflex
ENCODING 226
SWIDTH 634 0
DWIDTH 11 0
BBX 10 12 1 0
BITMAP
0380
0cc0
0000
0fc0
11c0
3180
6180
e380
e780
ef80
fb80
63c0
ENDCHAR
STARTCHAR abreve
ENCODING 227
SWIDTH 634 0
DWIDTH 11 0
BBX 10 12 1 0
BITMAP
0840
0780
0000
0fc0
11c0
3180
6180
e380
e780
ef80
fb80
63c0
ENDCHAR
STARTCHAR adiaeresis
ENCODING 228
SWIDTH 634 0
DWIDTH 11 0
BBX 10 11 1 0
BITMAP
0d80
0000
0fc0
11c0
3180
6180
e380
e780
ef80
fb80
63c0
ENDCHAR
STARTCHAR lacute
ENCODING 229
SWIDTH 319 0
DWIDTH 5 0
BBX 8 16 1 0
BITMAP
07
18
00
78
38
38
30
30
70
70
70
60
60
e0
e0
f0
ENDCHAR
STARTCHAR cacute
ENCODING 230
SWIDTH 524 0
DWIDTH 9 0
BBX 10 12 1 0
BITMAP
01c0
0600
0000
0f80
3100
6100
6000
e000
e000
e000
e100
7e00
ENDCHAR
STARTCHAR ccedilla
ENCODING 231
SWIDTH 524 0
DWIDTH 9 0
BBX 9 12 1 -3
BITMAP
0f80
3100
6100
6000
e000
e000
e000
e100
7e00
2000
1000
7000
ENDCHAR
STARTCHAR ccaron
ENCODING 232
SWIDTH 524 0
DWIDTH 9 0
BBX 9 12 1 0
BITMAP
1980
0e00
0000
0f80
3100
6100
6000
e000
e000
e000
e100
7e00
ENDCHAR
STARTCHAR eacute
ENCODING 233
SWIDTH 548 0
DWIDTH 9 0
BBX 9 12 1 0
BITMAP
0380
0c00
0000
0e00
3300
6300
6300
e600
fc00
e000
e100
7e00
ENDCHAR
STARTCHAR eogonek
ENCODING 234
SWIDTH 548 0
DWIDTH 9 0
BBX 8 11 1 -2
BITMAP
0e
33
63
63
e6
fc
e0
e1
7e
10
38
ENDCHAR
STARTCHAR ediaeresis
ENCODING 235
SWIDTH 548 0
DWIDTH 9 0
BBX 8 11 1 0
BITMAP
1b
00
0e
33
63
63
e6
fc
e0
e1
7e
ENDCHAR
STARTCHAR ecaron
ENCODING 236
SWIDTH 548 0
DWIDTH 9 0
BBX 8 12 1 0
BITMAP
33
1c
00
0e
33
63
63
e6
fc
e0
e1
7e
ENDCHAR
STARTCHAR iacute
ENCODING 237
SWIDTH 319 0
DWIDTH 5 0
BBX 7 12 2 0
BITMAP
0e
30
00
f0
70
70
60
60
60
e0
e0
f0
ENDCHAR
STARTCHAR icircumflex
ENCODING 238
SWIDTH 319 0
DWIDTH 5 0
BBX 6 12 2 0
BITMAP
38
cc
00
f0
70
70
60
60
60
e0
e0
f0
ENDCHAR
STARTCHAR dcaron
ENCODING 239
SWIDTH 960 0
DWIDTH 16 0
BBX 16 15 1 0
BITMAP
0007
0007
01e7
00e2
00c6
00cc
0fc0
11c0
31c0
6180
6380
e380
e780
eb80
73c0
ENDCHAR
STARTCHAR dstroke
ENCODING 240
SWIDTH 900 0
DWIDTH 15 0
BBX 15 13 1 0
BITMAP
01e0
00e0
0ffe
00c0
0fc0
11c0
31c0
6180
6380
e380
e780
eb80
73c0
ENDCHAR
STARTCHAR nacute
ENCODING 241
SWIDTH 656 0
DWIDTH 11 0
BBX 10 12 1 0
BITMAP
0380
0c00
0000
f380
35c0
79c0
79c0
7180
6180
6380
e380
e3c0
ENDCHAR
STARTCHAR ncaron
ENCODING 242
SWIDTH 656 0
DWIDTH 11 0
BBX 10 12 1 0
BITMAP
3300
1c00
0000
f380
35c0
79c0
79c0
7180
6180
6380
e380
e3c0
ENDCHAR
STARTCHAR oacute
ENCODING 243
SWIDTH 599 0
DWIDTH 10 0
BBX 10 12 1 0
BITMAP
01c0
0600
0000
0f00
3180
7180
6180
e180
e380
e300
e600
7c00
ENDCHAR
STARTCHAR ocircumflex
ENCODING 244
SWIDTH 599 0
DWIDTH 10 0
BBX 9 12 1 0
BITMAP
0700
1980
0000
0f00
3180
7180
6180
e180
e380
e300
e600
7c00
ENDCHAR
STARTCHAR odoubleacute
ENCODING 245
SWIDTH 599 0
DWIDTH 10 0
BBX 10 12 1 0
BITMAP
07c0
0b00
0000
0f00
3180
7180
6180
e180
e380
e300
e600
7c00
ENDCHAR
STARTCHAR odiaeresis
ENCODING 246
SWIDTH 599 0
DWIDTH 10 0
BBX 9 11 1 0
BITMAP
0d80
0000
0f00
3180
7180
6180
e180
e380
e300
e600
7c00
ENDCHAR
STARTCHAR division
ENCODING 247
SWIDTH 636 0
DWIDTH 11 0
BBX 10 9 1 0
BITMAP
0600
0400
0000
0000
ffc0
0000
0000
1800
1800
ENDCHAR
STARTCHAR rcaron
ENCODING 248
SWIDTH 496 0
DWIDTH 8 0
BBX 9 12 1 0
BITMAP
3300
1c00
0000
f180
3700
7c00
7800
7000
6000
6000
e000
e000
ENDCHAR
STARTCHAR uring
ENCODING 249
SWIDTH 655 0
DWIDTH 11 0
BBX 10 13 2 0
BITMAP
1c00
1400
1c00
0000
f3c0
71c0
7180
6180
6380
e780
e780
fb00
e3c0
ENDCHAR
STARTCHAR uacute
ENCODING 250
SWIDTH 655 0
DWIDTH 11 0
BBX 10 12 2 0
BITMAP
01c0
0600
0000
f3c0
71c0
7180
6180
6380
e780
e780
fb00
e3c0
ENDCHAR
STARTCHAR udoubleacute
ENCODING 251
SWIDTH 655 0
DWIDTH 11 0
BBX 10 12 2 0
BITMAP
0f80
1600
0000
f3c0
71c0
7180
6180
6380
e780
e780
fb00
e3c0
ENDCHAR
STARTCHAR udiaeresis
ENCODING 252
SWIDTH 655 0
DWIDTH 11 0
BBX 10 11 2 0
BITMAP
0d80
0000
f3c0
71c0
7180
6180
6380
e780
e780
fb00
e3c0
ENDCHAR
STARTCHAR yacute
ENCODING 253
SWIDTH 586 0
DWIDTH 10 0
BBX 12 15 0 -3
BITMAP
00e0
0300
0000
3870
1c30
1c20
0c60
0cc0
0f80
0f00
0600
0400
0800
1000
f000
ENDCHAR
STARTCHAR tcedilla
ENCODING 254
SWIDTH 375 0
DWIDTH 6 0
BBX 6 15 2 -3
BITMAP
30
30
30
fc
70
60
60
60
e0
e0
e0
70
30
10
70
ENDCHAR
STARTCHAR abovedot
ENCODING 255
SWIDTH 599 0
DWIDTH 10 0
BBX 2 2 6 11
BITMAP
c0
c0
ENDCHAR
ENDFONT
